<?xml version="1.0" encoding="utf-8"?>
<!-- Generator: Adobe Illustrator 28.0.0, SVG Export Plug-In . SVG Version: 6.00 Build 0)  -->
<svg version="1.1" id="Ebene_1" xmlns="http://www.w3.org/2000/svg" xmlns:xlink="http://www.w3.org/1999/xlink" x="0px" y="0px"
	 viewBox="0 0 700.16 112.07" style="enable-background:new 0 0 700.16 112.07;" xml:space="preserve">
<style type="text/css">
	.st0{fill:#010202;}
</style>
<g>
	<g>
		<g>
			<path class="st0" d="M109.92,101.73c-0.3,1.19-0.71,2.15-1.23,2.87c-0.52,0.72-1.3,1.26-2.34,1.64
				c-1.05,0.37-2.38,0.62-4.02,0.75c-1.64,0.12-3.73,0.19-6.26,0.19c-2.83,0-5.1-0.07-6.81-0.19c-1.71-0.13-3.06-0.37-4.06-0.75
				c-0.99-0.37-1.71-0.92-2.16-1.64c-0.45-0.72-0.8-1.68-1.05-2.87L66.58,40.67h-0.15l-14.6,61.06c-0.25,1.14-0.59,2.07-1.04,2.79
				c-0.44,0.72-1.15,1.28-2.12,1.67c-0.97,0.4-2.28,0.66-3.95,0.78c-1.66,0.12-3.86,0.19-6.59,0.19c-2.88,0-5.18-0.07-6.89-0.19
				c-1.71-0.13-3.07-0.37-4.06-0.75c-0.99-0.37-1.71-0.92-2.16-1.64c-0.44-0.72-0.82-1.68-1.12-2.87L2.03,17.66
				c-0.45-1.79-0.7-3.19-0.75-4.21c-0.05-1.02,0.24-1.8,0.86-2.34c0.62-0.54,1.64-0.88,3.05-1.01c1.42-0.12,3.39-0.19,5.92-0.19
				c2.33,0,4.18,0.04,5.55,0.11c1.36,0.07,2.4,0.25,3.09,0.52c0.7,0.27,1.17,0.67,1.42,1.19c0.25,0.52,0.44,1.25,0.6,2.2l16.9,73.79
				h0.07l17.57-73.27c0.2-0.95,0.46-1.71,0.78-2.31c0.32-0.6,0.87-1.05,1.63-1.38c0.77-0.32,1.83-0.54,3.17-0.67
				c1.34-0.12,3.12-0.19,5.36-0.19c2.38,0,4.28,0.05,5.7,0.15c1.41,0.1,2.51,0.31,3.28,0.64c0.77,0.32,1.32,0.78,1.67,1.38
				c0.35,0.6,0.62,1.39,0.82,2.38l18.17,73.27h0.15l16.9-73.57c0.15-0.79,0.34-1.47,0.6-2.04c0.25-0.57,0.72-1.02,1.41-1.34
				c0.7-0.32,1.69-0.54,2.98-0.67c1.29-0.12,3.1-0.19,5.44-0.19c2.18,0,3.88,0.07,5.1,0.19c1.22,0.13,2.1,0.46,2.64,1.01
				s0.78,1.35,0.71,2.42c-0.07,1.07-0.33,2.52-0.78,4.36L109.92,101.73z"/>
			<path class="st0" d="M201.51,69.03c0,2.29-0.51,3.97-1.52,5.07c-1.02,1.09-2.42,1.64-4.21,1.64h-40.43c0,2.83,0.34,5.4,1.01,7.71
				c0.67,2.3,1.74,4.27,3.2,5.88c1.46,1.61,3.35,2.84,5.66,3.69c2.31,0.85,5.08,1.26,8.3,1.26c3.28,0,6.16-0.24,8.64-0.71
				c2.48-0.47,4.63-0.99,6.44-1.56c1.81-0.57,3.31-1.09,4.5-1.56c1.19-0.47,2.16-0.71,2.9-0.71c0.45,0,0.82,0.09,1.12,0.26
				c0.3,0.17,0.54,0.48,0.75,0.93c0.2,0.45,0.34,1.08,0.41,1.9c0.07,0.82,0.11,1.85,0.11,3.09c0,1.09-0.03,2.03-0.07,2.79
				c-0.05,0.77-0.12,1.43-0.22,1.97c-0.1,0.55-0.25,1.01-0.45,1.38c-0.2,0.37-0.46,0.74-0.78,1.08c-0.32,0.35-1.2,0.82-2.64,1.42
				c-1.44,0.6-3.28,1.18-5.51,1.75c-2.23,0.57-4.79,1.07-7.67,1.49s-5.96,0.63-9.23,0.63c-5.91,0-11.08-0.74-15.52-2.23
				c-4.44-1.49-8.16-3.75-11.14-6.77c-2.98-3.03-5.2-6.85-6.66-11.47c-1.46-4.62-2.2-10.03-2.2-16.23c0-5.91,0.77-11.23,2.31-15.97
				c1.54-4.74,3.77-8.76,6.7-12.06c2.93-3.3,6.49-5.82,10.68-7.55s8.92-2.61,14.19-2.61c5.56,0,10.31,0.82,14.26,2.46
				c3.95,1.64,7.18,3.91,9.72,6.81c2.53,2.91,4.39,6.34,5.59,10.31c1.19,3.97,1.79,8.29,1.79,12.96V69.03z M183.34,63.68
				c0.15-5.26-0.91-9.39-3.16-12.4c-2.26-3-5.75-4.5-10.46-4.5c-2.38,0-4.46,0.44-6.22,1.34c-1.76,0.89-3.22,2.1-4.39,3.61
				c-1.17,1.51-2.06,3.3-2.68,5.36c-0.62,2.06-0.98,4.26-1.08,6.59H183.34z"/>
			<path class="st0" d="M235.69,104.18c0,0.5-0.15,0.93-0.45,1.3c-0.3,0.37-0.81,0.68-1.52,0.93c-0.72,0.25-1.67,0.43-2.87,0.56
				c-1.19,0.12-2.71,0.19-4.54,0.19c-1.83,0-3.35-0.07-4.54-0.19c-1.19-0.13-2.15-0.31-2.87-0.56c-0.72-0.25-1.23-0.56-1.53-0.93
				c-0.3-0.37-0.44-0.81-0.44-1.3V6.27c0-0.5,0.15-0.94,0.44-1.34c0.3-0.4,0.81-0.73,1.53-1.01c0.72-0.27,1.67-0.48,2.87-0.63
				c1.19-0.15,2.71-0.22,4.54-0.22c1.84,0,3.35,0.07,4.54,0.22c1.19,0.15,2.15,0.36,2.87,0.63c0.72,0.27,1.23,0.61,1.52,1.01
				c0.3,0.4,0.45,0.85,0.45,1.34V104.18z"/>
			<path class="st0" d="M315.73,69.03c0,2.29-0.51,3.97-1.52,5.07c-1.02,1.09-2.42,1.64-4.21,1.64h-40.43c0,2.83,0.34,5.4,1.01,7.71
				c0.67,2.3,1.74,4.27,3.2,5.88c1.46,1.61,3.35,2.84,5.66,3.69c2.31,0.85,5.08,1.26,8.3,1.26c3.28,0,6.16-0.24,8.64-0.71
				c2.48-0.47,4.63-0.99,6.44-1.56c1.81-0.57,3.31-1.09,4.5-1.56c1.19-0.47,2.16-0.71,2.9-0.71c0.45,0,0.82,0.09,1.12,0.26
				c0.3,0.17,0.54,0.48,0.75,0.93c0.2,0.45,0.34,1.08,0.41,1.9c0.07,0.82,0.11,1.85,0.11,3.09c0,1.09-0.03,2.03-0.07,2.79
				c-0.05,0.77-0.12,1.43-0.22,1.97c-0.1,0.55-0.25,1.01-0.45,1.38c-0.2,0.37-0.46,0.74-0.78,1.08c-0.32,0.35-1.2,0.82-2.64,1.42
				c-1.44,0.6-3.28,1.18-5.51,1.75c-2.23,0.57-4.79,1.07-7.67,1.49c-2.88,0.42-5.96,0.63-9.23,0.63c-5.91,0-11.08-0.74-15.52-2.23
				c-4.44-1.49-8.16-3.75-11.14-6.77c-2.98-3.03-5.2-6.85-6.66-11.47c-1.46-4.62-2.2-10.03-2.2-16.23c0-5.91,0.77-11.23,2.31-15.97
				c1.54-4.74,3.77-8.76,6.7-12.06c2.93-3.3,6.49-5.82,10.68-7.55s8.92-2.61,14.19-2.61c5.56,0,10.31,0.82,14.26,2.46
				c3.95,1.64,7.18,3.91,9.72,6.81c2.53,2.91,4.39,6.34,5.59,10.31c1.19,3.97,1.79,8.29,1.79,12.96V69.03z M297.56,63.68
				c0.15-5.26-0.91-9.39-3.16-12.4c-2.26-3-5.75-4.5-10.46-4.5c-2.38,0-4.46,0.44-6.22,1.34c-1.76,0.89-3.22,2.1-4.39,3.61
				c-1.17,1.51-2.06,3.3-2.68,5.36c-0.62,2.06-0.98,4.26-1.08,6.59H297.56z"/>
			<path class="st0" d="M381.4,93.61c0,1.29-0.03,2.37-0.11,3.24c-0.07,0.87-0.17,1.6-0.3,2.2c-0.13,0.59-0.27,1.08-0.44,1.45
				c-0.17,0.37-0.56,0.84-1.15,1.41c-0.6,0.58-1.62,1.27-3.05,2.09c-1.44,0.82-3.08,1.55-4.91,2.2c-1.84,0.64-3.83,1.17-5.99,1.56
				c-2.16,0.4-4.38,0.6-6.66,0.6c-5.11,0-9.65-0.79-13.59-2.38c-3.95-1.59-7.26-3.93-9.94-7.04c-2.68-3.1-4.71-6.89-6.07-11.35
				c-1.36-4.47-2.05-9.58-2.05-15.34c0-6.65,0.83-12.4,2.5-17.24c1.66-4.84,3.98-8.85,6.96-12.02c2.98-3.18,6.5-5.53,10.58-7.07
				c4.07-1.54,8.54-2.31,13.4-2.31c1.98,0,3.93,0.17,5.84,0.52c1.91,0.35,3.7,0.82,5.36,1.42c1.66,0.6,3.15,1.27,4.47,2.01
				c1.31,0.75,2.24,1.39,2.79,1.93c0.55,0.55,0.93,1.01,1.15,1.38c0.23,0.37,0.4,0.86,0.52,1.46c0.12,0.59,0.22,1.32,0.3,2.2
				c0.07,0.87,0.11,1.92,0.11,3.16c0,2.88-0.25,4.9-0.75,6.07c-0.5,1.17-1.14,1.75-1.94,1.75c-0.84,0-1.74-0.35-2.68-1.05
				c-0.94-0.69-2.06-1.46-3.35-2.31c-1.29-0.84-2.83-1.61-4.61-2.3c-1.79-0.7-3.93-1.05-6.4-1.05c-4.87,0-8.59,1.88-11.17,5.62
				c-2.58,3.75-3.87,9.25-3.87,16.49c0,3.57,0.32,6.73,0.97,9.46c0.64,2.73,1.6,5.01,2.87,6.85c1.26,1.84,2.85,3.22,4.76,4.13
				c1.91,0.91,4.13,1.38,6.67,1.38c2.58,0,4.8-0.38,6.66-1.15c1.86-0.77,3.49-1.63,4.88-2.57c1.39-0.94,2.56-1.8,3.5-2.57
				c0.95-0.77,1.74-1.15,2.38-1.15c0.45,0,0.82,0.12,1.12,0.37c0.3,0.25,0.54,0.71,0.71,1.38c0.17,0.67,0.31,1.53,0.41,2.57
				S381.4,91.97,381.4,93.61"/>
			<path class="st0" d="M434.27,97.63c0,2.18-0.14,3.86-0.41,5.02c-0.27,1.17-0.63,1.99-1.08,2.46c-0.44,0.47-1.11,0.89-1.97,1.27
				c-0.87,0.37-1.89,0.69-3.05,0.97c-1.16,0.27-2.43,0.48-3.79,0.63c-1.37,0.15-2.74,0.23-4.13,0.23c-3.73,0-6.95-0.47-9.68-1.42
				c-2.73-0.94-4.99-2.4-6.78-4.36c-1.79-1.96-3.1-4.43-3.95-7.41c-0.84-2.98-1.26-6.5-1.26-10.57V50.42h-7.97
				c-0.94,0-1.66-0.58-2.16-1.75c-0.5-1.17-0.74-3.12-0.74-5.85c0-1.44,0.06-2.65,0.19-3.65c0.12-0.99,0.31-1.77,0.56-2.35
				c0.25-0.57,0.56-0.98,0.93-1.22c0.37-0.25,0.81-0.37,1.3-0.37h7.89V20.41c0-0.5,0.14-0.94,0.41-1.34c0.27-0.4,0.77-0.73,1.49-1
				c0.72-0.27,1.69-0.47,2.9-0.6s2.72-0.19,4.5-0.19c1.84,0,3.36,0.07,4.58,0.19c1.22,0.12,2.17,0.32,2.87,0.6
				c0.69,0.27,1.19,0.61,1.49,1c0.3,0.4,0.45,0.85,0.45,1.34v14.82h14.44c0.5,0,0.93,0.13,1.3,0.37c0.37,0.25,0.68,0.66,0.93,1.22
				c0.25,0.58,0.44,1.35,0.56,2.35c0.12,0.99,0.18,2.21,0.18,3.65c0,2.73-0.25,4.68-0.75,5.85c-0.5,1.17-1.22,1.75-2.16,1.75h-14.52
				v31.19c0,3.62,0.57,6.34,1.71,8.16c1.14,1.81,3.18,2.72,6.1,2.72c0.99,0,1.89-0.09,2.68-0.26c0.79-0.17,1.5-0.37,2.12-0.6
				c0.62-0.22,1.15-0.42,1.56-0.6c0.42-0.17,0.81-0.26,1.15-0.26c0.3,0,0.58,0.09,0.86,0.26c0.27,0.17,0.48,0.52,0.63,1.05
				c0.15,0.52,0.29,1.23,0.41,2.12C434.21,95.1,434.27,96.24,434.27,97.63"/>
			<path class="st0" d="M490.49,43.94c0,1.79-0.05,3.25-0.15,4.39c-0.1,1.15-0.25,2.04-0.45,2.68c-0.2,0.64-0.46,1.09-0.78,1.34
				c-0.32,0.25-0.73,0.37-1.23,0.37c-0.4,0-0.85-0.09-1.34-0.26c-0.5-0.17-1.05-0.36-1.68-0.56c-0.62-0.2-1.3-0.39-2.04-0.56
				c-0.75-0.17-1.56-0.26-2.46-0.26c-1.04,0-2.09,0.21-3.13,0.63c-1.04,0.42-2.12,1.08-3.24,1.97c-1.12,0.89-2.28,2.08-3.5,3.57
				s-2.52,3.33-3.91,5.51v41.4c0,0.5-0.15,0.93-0.44,1.3c-0.3,0.37-0.81,0.68-1.53,0.93c-0.72,0.25-1.67,0.43-2.87,0.56
				c-1.19,0.12-2.71,0.19-4.54,0.19c-1.83,0-3.35-0.07-4.54-0.19c-1.19-0.13-2.15-0.31-2.87-0.56s-1.23-0.56-1.52-0.93
				c-0.3-0.37-0.45-0.81-0.45-1.3V37.77c0-0.5,0.12-0.93,0.37-1.31c0.25-0.37,0.7-0.68,1.34-0.93c0.64-0.25,1.48-0.44,2.5-0.56
				c1.02-0.12,2.3-0.18,3.83-0.18c1.59,0,2.9,0.06,3.94,0.18c1.05,0.13,1.85,0.31,2.42,0.56c0.57,0.25,0.98,0.56,1.23,0.93
				c0.25,0.37,0.37,0.81,0.37,1.31v8.26c1.73-2.48,3.37-4.53,4.91-6.15c1.54-1.61,3-2.89,4.39-3.83c1.39-0.94,2.78-1.6,4.17-1.97
				c1.39-0.37,2.78-0.56,4.17-0.56c0.64,0,1.34,0.04,2.09,0.11s1.51,0.2,2.3,0.37c0.8,0.17,1.49,0.37,2.09,0.6
				c0.6,0.22,1.03,0.46,1.3,0.71c0.27,0.25,0.47,0.52,0.6,0.82c0.12,0.3,0.24,0.71,0.34,1.22c0.1,0.52,0.17,1.31,0.22,2.35
				C490.46,40.74,490.49,42.16,490.49,43.94"/>
			<path class="st0" d="M567.33,70.3c0,5.66-0.74,10.82-2.24,15.49s-3.75,8.69-6.78,12.06c-3.02,3.38-6.82,5.98-11.39,7.82
				c-4.57,1.84-9.9,2.76-16.01,2.76c-5.91,0-11.04-0.82-15.41-2.46c-4.37-1.64-7.99-4.02-10.87-7.15c-2.88-3.13-5.01-6.98-6.4-11.54
				c-1.39-4.57-2.08-9.78-2.08-15.64c0-5.66,0.76-10.84,2.27-15.53c1.52-4.69,3.79-8.71,6.81-12.06c3.03-3.35,6.81-5.95,11.35-7.78
				c4.54-1.83,9.87-2.76,15.97-2.76c5.96,0,11.12,0.81,15.49,2.42c4.37,1.62,7.98,3.98,10.84,7.11c2.85,3.13,4.98,6.98,6.37,11.54
				S567.33,64.4,567.33,70.3 M548.05,71.05c0-3.28-0.26-6.29-0.78-9.04c-0.52-2.75-1.4-5.15-2.64-7.19
				c-1.24-2.03-2.89-3.62-4.95-4.76c-2.07-1.15-4.66-1.71-7.78-1.71c-2.78,0-5.22,0.51-7.3,1.52c-2.09,1.02-3.8,2.51-5.14,4.47
				c-1.34,1.96-2.35,4.32-3.02,7.08c-0.67,2.75-1,5.89-1,9.42c0,3.28,0.27,6.29,0.82,9.04c0.54,2.76,1.42,5.15,2.64,7.19
				c1.22,2.03,2.87,3.61,4.95,4.73c2.08,1.12,4.67,1.68,7.74,1.68c2.83,0,5.29-0.51,7.37-1.53c2.09-1.02,3.8-2.49,5.14-4.43
				c1.34-1.93,2.34-4.28,2.98-7.04C547.72,77.71,548.05,74.57,548.05,71.05"/>
			<path class="st0" d="M645.59,104.18c0,0.5-0.15,0.93-0.45,1.3c-0.3,0.37-0.79,0.68-1.49,0.93c-0.7,0.25-1.65,0.43-2.87,0.56
				c-1.22,0.12-2.72,0.19-4.5,0.19c-1.84,0-3.36-0.07-4.58-0.19c-1.22-0.13-2.17-0.31-2.87-0.56c-0.69-0.25-1.19-0.56-1.49-0.93
				c-0.3-0.37-0.45-0.81-0.45-1.3v-37.9c0-3.22-0.24-5.76-0.71-7.59c-0.47-1.84-1.15-3.42-2.05-4.73c-0.89-1.32-2.05-2.33-3.47-3.05
				c-1.41-0.72-3.06-1.08-4.95-1.08c-2.38,0-4.79,0.87-7.22,2.61c-2.44,1.74-4.97,4.27-7.59,7.59v44.16c0,0.5-0.15,0.93-0.45,1.3
				c-0.3,0.37-0.81,0.68-1.53,0.93c-0.72,0.25-1.67,0.43-2.87,0.56c-1.19,0.12-2.71,0.19-4.54,0.19c-1.84,0-3.35-0.07-4.54-0.19
				c-1.19-0.13-2.14-0.31-2.86-0.56c-0.72-0.25-1.23-0.56-1.53-0.93c-0.3-0.37-0.45-0.81-0.45-1.3V37.76c0-0.49,0.13-0.93,0.37-1.3
				c0.25-0.37,0.7-0.68,1.34-0.93c0.64-0.25,1.47-0.44,2.49-0.56c1.02-0.12,2.3-0.18,3.83-0.18c1.59,0,2.91,0.06,3.95,0.18
				c1.04,0.13,1.85,0.31,2.42,0.56c0.57,0.25,0.98,0.56,1.23,0.93c0.24,0.37,0.37,0.81,0.37,1.3v7.67
				c3.67-3.97,7.41-6.95,11.21-8.94c3.8-1.99,7.76-2.98,11.88-2.98c4.52,0,8.33,0.75,11.43,2.24c3.1,1.49,5.61,3.51,7.52,6.07
				c1.91,2.55,3.29,5.55,4.13,8.97s1.27,7.55,1.27,12.36V104.18z"/>
			<path class="st0" d="M698.88,93.06c0,5.52-1.01,9.23-3.02,11.13c-2.01,1.9-5.62,2.85-10.81,2.85c-5.2,0-8.79-0.93-10.77-2.81
				c-1.98-1.87-2.97-5.42-2.97-10.64c0-5.58,1.01-9.32,3.02-11.22c2.01-1.9,5.64-2.85,10.91-2.85c5.13,0,8.69,0.94,10.67,2.81
				C697.89,84.2,698.88,87.78,698.88,93.06"/>
		</g>
	</g>
</g>
</svg>
